# xmcd
#
# Track frame offsets:
#   150
#   14815
#   25462
#   36842
#   48619
#   63956
#   75633
#   87585
#   97242
#   110514
#   121970
#   134098
#   147211
#   158855
#   173634
#   190497
#   202639
#   214886
#   229387
#   251569
#   271387
#   285793
#   314464
#   326772
#
# Disc length: 4521 seconds
#
# Revision: 0
# Processed by: cddbd v1.5.1PL0 Copyright (c) Steve Scherf et al.
# Submitted via: uFREEDB 1.6.0
#
DISCID=6b11a718
DTITLE=Sam Cooke - sam cooke
DYEAR=1900
DGENRE=Soul
TTITLE0=A change gona come
TTITLE1=a hundred pounds of clay
TTITLE2=be with me jesus
TTITLE3=bring it all home to me
TTITLE4=amazing grace
TTITLE5=chain gang
TTITLE6=come and go to that land
TTITLE7=don't know much abaout history
TTITLE8=end of my journy
TTITLE9=god bless the child
TTITLE10=he'll make a way
TTITLE11=oh mary, don't you weep
TTITLE12=were you there
TTITLE13=i'm so glad
TTITLE14=this little light of me
TTITLE15=twistin the night away
TTITLE16=sittin on the dock of the bay
TTITLE17=i heard it through the grapevine
TTITLE18=you send me
TTITLE19=stand by me
TTITLE20=i was born
TTITLE21=if i had a hammer
TTITLE22=lonely teardrops
TTITLE23=peace in the valley
EXTD=
EXTT0=
EXTT1=
EXTT2=
EXTT3=
EXTT4=
EXTT5=
EXTT6=
EXTT7=
EXTT8=
EXTT9=
EXTT10=
EXTT11=
EXTT12=
EXTT13=
EXTT14=
EXTT15=
EXTT16=
EXTT17=
EXTT18=
EXTT19=
EXTT20=
EXTT21=
EXTT22=
EXTT23=
PLAYORDER=
